<?xml version="1.0" encoding="UTF-8"?>
<svg xmlns="http://www.w3.org/2000/svg" xmlns:xlink="http://www.w3.org/1999/xlink" width="512px" height="512px" viewBox="0 0 512 512" version="1.1">
<g id="surface1">
<path style=" stroke:none;fill-rule:nonzero;fill:rgb(25.882354%,52.156866%,95.686275%);fill-opacity:1;" d="M 15.820312 374.304688 L 146.304688 243.804688 L 195.054688 292.554688 L 64.570312 423.054688 C 59.804688 427.820312 52.082031 427.820312 47.320312 423.054688 L 15.804688 391.542969 C 11.042969 386.777344 11.042969 379.054688 15.804688 374.292969 Z M 15.820312 374.304688 "/>
<path style=" stroke:none;fill-rule:nonzero;fill:rgb(91.764706%,26.274511%,20.784314%);fill-opacity:1;" d="M 203.667969 203.679688 L 316.929688 316.945312 L 276.847656 357.015625 C 272.082031 361.777344 264.359375 361.777344 259.597656 357.015625 L 146.359375 243.765625 L 186.429688 203.695312 C 191.195312 198.929688 198.902344 198.929688 203.667969 203.679688 Z M 203.667969 203.679688 "/>
<path style=" stroke:none;fill-rule:nonzero;fill:rgb(98.039216%,73.333335%,1.960784%);fill-opacity:1;" d="M 268.195312 268.195312 L 402.265625 134.125 L 451.015625 182.875 L 316.945312 316.945312 Z M 268.195312 268.195312 "/>
<path style=" stroke:none;fill-rule:nonzero;fill:rgb(20.392157%,65.882355%,32.549021%);fill-opacity:1;" d="M 498.792969 220.527344 L 498.792969 99.554688 C 498.792969 91.695312 492.417969 85.332031 484.570312 85.332031 L 363.597656 85.332031 C 355.75 85.332031 349.375 91.695312 349.375 99.554688 C 349.375 103.332031 350.875 106.945312 353.542969 109.609375 L 474.515625 230.582031 C 480.070312 236.140625 489.070312 236.140625 494.625 230.582031 C 497.292969 227.917969 498.792969 224.292969 498.792969 220.527344 Z M 498.792969 220.527344 "/>
</g>
</svg>
